<svg width="26" height="28" viewBox="0 0 26 28" fill="none" xmlns="http://www.w3.org/2000/svg">
<path d="M25.0312 28H0.03125V0H25.0312V28Z"/>
<g clip-path="url(#clip0_364_240)">
<path d="M12.5313 4.75C12.2148 4.75 11.9023 4.80469 11.6055 4.91016L0.648444 8.86719C0.27735 9.00391 0.0312562 9.35547 0.0312562 9.75C0.0312562 10.1445 0.27735 10.4961 0.648444 10.6328L2.91016 11.4492C2.26954 12.457 1.90626 13.6484 1.90626 14.9023V16C1.90626 17.1094 1.48438 18.2539 1.03516 19.1562C0.781256 19.6641 0.492194 20.1641 0.156256 20.625C0.0312562 20.793 -0.00390008 21.0117 0.0664124 21.2109C0.136725 21.4102 0.300787 21.5586 0.503912 21.6094L3.00391 22.2344C3.16797 22.2773 3.34376 22.2461 3.48829 22.1562C3.63282 22.0664 3.73438 21.918 3.76563 21.75C4.10157 20.0781 3.9336 18.5781 3.6836 17.5039C3.5586 16.9492 3.39063 16.3828 3.15626 15.8633V14.9023C3.15626 13.7227 3.55469 12.6094 4.2461 11.7188C4.75001 11.1133 5.40235 10.625 6.16798 10.3242L12.3008 7.91406C12.6211 7.78906 12.9844 7.94531 13.1094 8.26562C13.2344 8.58594 13.0781 8.94922 12.7578 9.07422L6.62501 11.4844C6.14063 11.6758 5.71485 11.9688 5.36719 12.3281L11.6016 14.5781C11.8984 14.6836 12.2109 14.7383 12.5273 14.7383C12.8438 14.7383 13.1563 14.6836 13.4531 14.5781L24.4141 10.6328C24.7852 10.5 25.0313 10.1445 25.0313 9.75C25.0313 9.35547 24.7852 9.00391 24.4141 8.86719L13.457 4.91016C13.1602 4.80469 12.8477 4.75 12.5313 4.75ZM5.03126 19.4375C5.03126 20.8164 8.39063 22.25 12.5313 22.25C16.6719 22.25 20.0313 20.8164 20.0313 19.4375L19.4336 13.7578L13.8789 15.7656C13.4453 15.9219 12.9883 16 12.5313 16C12.0742 16 11.6133 15.9219 11.1836 15.7656L5.62891 13.7578L5.03126 19.4375Z" fill="white"/>
</g>
<defs>
<clipPath id="clip0_364_240">
<path d="M0.03125 3.5H25.0312V23.5H0.03125V3.5Z" fill="white"/>
</clipPath>
</defs>
</svg>
